<svg width="12" height="10" viewBox="0 0 12 10" fill="none" xmlns="http://www.w3.org/2000/svg">
<path d="M9.35932 6.3004C9.38726 6.05607 9.37373 5.80787 9.36955 5.56871C9.32716 4.98516 9.16583 4.4405 9.15104 3.85647C9.11356 2.49993 10.0482 1.22303 11.3288 0.786612C10.7803 0.464937 10.1569 0.333198 9.56706 0.279084C7.41511 0.0820118 5.27932 1.33847 4.42674 3.36385C4.40027 3.42872 4.3738 3.49359 4.31505 3.55443C4.21564 3.65738 4.05506 3.68318 3.92532 3.63024C3.7725 3.5731 3.6873 3.43657 3.6707 3.27583C3.66531 3.22794 3.66915 3.17946 3.68201 3.13301C3.79943 1.95319 4.64159 0.912539 5.73836 0.488535C4.34229 0.370283 2.87708 1.03535 1.95729 2.10956C1.75942 2.37065 1.56154 2.63175 1.41515 2.94255C1.20952 3.28659 1.06473 3.68937 0.965609 4.07296C0.689215 5.37057 1.00394 6.79589 1.83155 7.8212C2.71097 8.91461 3.95883 9.76696 5.39508 9.8155C7.0016 9.86567 8.50314 8.91012 9.09359 7.4184L9.15025 7.23798C9.25986 6.92782 9.35932 6.3004 9.35932 6.3004ZM5.03361 7.82051C4.79413 7.80629 4.46138 7.72009 4.24772 7.6042C3.54285 7.28525 3.2718 6.51707 3.26121 5.90997C3.94461 6.3167 4.67453 6.22575 5.17499 5.90416C5.61606 5.60662 5.76457 5.15316 6.0517 4.73409C6.32995 4.33358 6.624 4.0478 7.06216 3.84693C6.97935 4.11061 6.90122 4.37881 6.87796 4.62766C6.78639 5.44357 7.15378 6.19627 6.66086 6.95019C6.61632 7.03378 6.56241 7.10833 6.49462 7.17852C6.13811 7.5758 5.56293 7.83428 5.03361 7.82051Z" fill="white"/>
</svg>
