<svg width="24" height="24" viewBox="0 0 24 24" fill="none" xmlns="http://www.w3.org/2000/svg">
<path d="M13.2826 5.85156V17.6216L9.04981 14.4822H5.21301V8.99096H9.04981L13.2826 5.85156Z" fill="white"/>
<path d="M12 22.7366C18.0751 22.7366 23 17.8117 23 11.7366C23 5.66144 18.0751 0.736572 12 0.736572C5.92487 0.736572 1 5.66144 1 11.7366C1 17.8117 5.92487 22.7366 12 22.7366Z" stroke="white" stroke-width="1.1" stroke-miterlimit="10"/>
<path d="M18.1403 11.7366L19.8607 13.457L18.6111 14.7088L16.8907 12.9884L15.1703 14.7088L13.9207 13.457L15.6411 11.7366L13.9207 10.0162L15.1703 8.7644L16.8907 10.4848L18.6111 8.7644L19.8607 10.0162L18.1403 11.7366Z" fill="white"/>
</svg>
